<svg width="111" height="24" viewBox="0 0 111 24" fill="none" xmlns="http://www.w3.org/2000/svg">
<path d="M13.0208 23.635H16.0845V0H11.2438V8.09126C10.2941 7.72624 9.25243 7.57414 8.18013 7.57414C3.58455 7.57414 0 10.4943 0 15.9087C0 21.3536 3.12499 24 7.44484 24C9.49753 24 10.9375 23.4221 12.1936 22.4791L13.0208 23.635ZM4.90195 15.8175C4.90195 13.1711 6.24999 11.5894 8.60905 11.5894C9.71199 11.5894 10.4779 11.8023 11.2438 12.2586V19.0722C10.386 19.711 9.5588 19.8935 8.45586 19.8935C6.28062 19.8935 4.90195 18.403 4.90195 15.8175Z" fill="#f4f4f4"/>
<path d="M27.421 24C32.6906 24 35.7543 20.6236 35.7543 15.7871C35.7543 10.8289 32.7825 7.57414 27.4516 7.57414C22.2127 7.57414 19.1183 11.0114 19.1183 15.8175C19.1183 20.7757 22.1514 24 27.421 24ZM27.4516 20.076C25.4296 20.076 23.959 18.5551 23.959 15.7567C23.959 13.0798 25.3683 11.4981 27.4516 11.4981C29.5043 11.4981 30.9136 13.0494 30.9136 15.7567C30.9136 18.5551 29.535 20.076 27.4516 20.076Z" fill="#f4f4f4"/>
<path d="M45.9046 23.9392C47.8347 23.9392 49.3666 23.6654 50.8371 22.8745L51.0516 18.8289C49.6423 19.4981 48.3555 19.7719 47.0075 19.7719C44.771 19.7719 42.7796 18.7681 42.7796 15.6654C42.7796 13.2928 44.3421 11.7719 46.9156 11.7719C48.233 11.7719 49.7036 12.0456 51.0516 12.8669L50.684 8.6692C49.5197 7.93916 47.6815 7.57414 45.8739 7.57414C41.0639 7.57414 37.8776 10.3118 37.8776 16.0304C37.8776 22.1141 42.0443 23.9392 45.9046 23.9392Z" fill="#f4f4f4"/>
<path d="M64.7421 23.635H70.3794L64.2519 13.8403L69.8585 7.96958H64.497L59.1355 14.0532V0H54.2948V23.635H59.1355V19.2243L60.9125 17.3688L64.7421 23.635Z" fill="#f4f4f4"/>
<path d="M77.7538 23.9087C81.7367 23.9087 84.3408 22.2966 84.3408 18.8593C84.3408 16.6692 83.3604 15.3308 79.5921 14.3878L78.7955 14.1749C76.9879 13.749 76.6815 13.3232 76.6815 12.6236C76.6815 11.8023 77.2024 11.3764 78.6423 11.3764C80.1435 11.3764 82.3494 11.8631 83.7281 12.5627L83.3604 8.54753C82.1656 7.93916 80.358 7.57414 78.6423 7.57414C74.4144 7.57414 72.2698 9.24715 72.2698 12.4106C72.2698 14.9354 73.6178 16.0913 76.6509 16.8517L77.4168 17.0646C79.4389 17.6122 79.8065 17.9468 79.8065 18.6768C79.8065 19.7414 79.0712 20.1369 77.57 20.1369C75.456 20.1369 73.2502 19.5589 71.8102 18.6768L72.1779 22.7529C73.4953 23.4829 75.6092 23.9087 77.7538 23.9087Z" fill="#f4f4f4"/>
<path d="M87.6247 4.89734H92.8331V0.152092H87.6247V4.89734ZM87.8086 23.635H92.6492V7.96958H87.8086V23.635Z" fill="#f4f4f4"/>
<path d="M107.076 23.635H110.568V14.9049C110.568 9.55133 107.504 7.60456 102.939 7.60456C101.071 7.60456 99.2937 8.06084 97.8537 8.91255L97.0572 13.597C98.6197 12.5019 100.366 11.9544 102.143 11.9544C103.859 11.9544 105.268 12.5627 105.636 14.2662C98.5278 14.692 95.9849 16.3042 95.9849 19.4068C95.9849 22.6008 98.3133 23.9392 101.346 23.9392C103.491 23.9392 105.115 23.1483 106.187 21.9316L107.076 23.635ZM100.642 18.981C100.642 17.5817 101.959 16.7605 105.727 16.365V19.711C104.962 20.3194 103.828 20.6844 102.817 20.6844C101.346 20.6844 100.642 20.1369 100.642 18.981Z" fill="#f4f4f4"/>
</svg>
