<?xml version="1.0" encoding="UTF-8"?>
<svg width="12px" height="12px" viewBox="0 0 12 12" version="1.1" xmlns="http://www.w3.org/2000/svg" xmlns:xlink="http://www.w3.org/1999/xlink">
    <!-- Generator: Sketch 61.2 (89653) - https://sketch.com -->
    <title>ui-icon / apps</title>
    <desc>Created with Sketch.</desc>
    <g id="Version-1" stroke="none" stroke-width="1" fill="none" fill-rule="evenodd">
        <g id="Organization-/-File-/-application-/-16" transform="translate(-2.000000, -2.000000)" fill="#C6C6C6">
            <path d="M8,9 L3,9 C2.44771525,9 2,8.55228475 2,8 L2,3 C2,2.44771525 2.44771525,2 3,2 L8,2 C8.55228475,2 9,2.44771525 9,3 L9,8 C9,8.55228475 8.55228475,9 8,9 Z M3,3 L3,8 L8,8 L8,3 L3,3 Z M13,6 L13,8 L11,8 L11,6 L13,6 L13,6 Z M13,5 L11,5 C10.4477153,5 10,5.44771525 10,6 L10,8 C10,8.55228475 10.4477153,9 11,9 L13,9 C13.5522847,9 14,8.55228475 14,8 L14,6 C14,5.44771525 13.5522847,5 13,5 Z M13,11 L13,13 L11,13 L11,11 L13,11 L13,11 Z M13,10 L11,10 C10.4477153,10 10,10.4477153 10,11 L10,13 C10,13.5522847 10.4477153,14 11,14 L13,14 C13.5522847,14 14,13.5522847 14,13 L14,11 C14,10.4477153 13.5522847,10 13,10 Z M8,11 L8,13 L6,13 L6,11 L8,11 L8,11 Z M8,10 L6,10 C5.44771525,10 5,10.4477153 5,11 L5,13 C5,13.5522847 5.44771525,14 6,14 L8,14 C8.55228475,14 9,13.5522847 9,13 L9,11 C9,10.4477153 8.55228475,10 8,10 Z" id="Fill"></path>
        </g>
    </g>
</svg>