<?xml version="1.0" encoding="UTF-8"?>
<svg width="14px" height="12px" viewBox="0 0 14 12" version="1.1" xmlns="http://www.w3.org/2000/svg" xmlns:xlink="http://www.w3.org/1999/xlink">
    <!-- Generator: Sketch 61.2 (89653) - https://sketch.com -->
    <title>ui-icon / folder</title>
    <desc>Created with Sketch.</desc>
    <g id="Version-1" stroke="none" stroke-width="1" fill="none" fill-rule="evenodd">
        <g id="Organization-/-File-/-folder-/-16" transform="translate(-1.000000, -2.000000)" fill="#C6C6C6">
            <path d="M5.6,3 L7.3,4.7 L7.6,5 L14,5 L14,13 L2,13 L2,3 L5.6,3 L5.6,3 Z M5.6,2 L2,2 C1.4,2 1,2.4 1,3 L1,13 C1,13.6 1.4,14 2,14 L14,14 C14.6,14 15,13.6 15,13 L15,5 C15,4.4 14.6,4 14,4 L8,4 L6.3,2.3 C6.1,2.1 5.9,2 5.6,2 Z" id="Fill"></path>
        </g>
    </g>
</svg>