<?xml version="1.0" encoding="UTF-8"?>
<svg width="16px" height="13px" viewBox="0 0 16 13" version="1.1" xmlns="http://www.w3.org/2000/svg" xmlns:xlink="http://www.w3.org/1999/xlink">
    <!-- Generator: Sketch 61.2 (89653) - https://sketch.com -->
    <title>ui-icon / home</title>
    <desc>Created with Sketch.</desc>
    <g id="Version-1" stroke="none" stroke-width="1" fill="none" fill-rule="evenodd">
        <g id="Actions-/-Navigation-/-home-/-16" transform="translate(0.000000, -1.000000)" fill="#C6C6C6">
            <path d="M8.305,1.105 C8.12327762,0.961401207 7.86672238,0.961401207 7.685,1.105 L0.5,6.71 L1.12,7.5 L2,6.81 L2,13 C2,13.5522847 2.44771525,14 3,14 L13,14 C13.5522847,14 14,13.5522847 14,13 L14,6.815 L14.88,7.5 L15.5,6.715 L8.305,1.105 Z M9,13 L7,13 L7,9 L9,9 L9,13 Z M10,13 L10,9 C10,8.44771525 9.55228475,8 9,8 L7,8 C6.44771525,8 6,8.44771525 6,9 L6,13 L3,13 L3,6.03 L8,2.135 L13,6.035 L13,13 L10,13 Z" id="Fill"></path>
        </g>
    </g>
</svg>