<?xml version="1.0" encoding="UTF-8"?>
<svg width="14px" height="15px" viewBox="0 0 14 15" version="1.1" xmlns="http://www.w3.org/2000/svg" xmlns:xlink="http://www.w3.org/1999/xlink">
    <!-- Generator: Sketch 61.2 (89653) - https://sketch.com -->
    <title>ui-icon / notifications</title>
    <desc>Created with Sketch.</desc>
    <g id="Version-1" stroke="none" stroke-width="1" fill="none" fill-rule="evenodd">
        <g id="Actions-/-Toggle-/-notification-/-16" transform="translate(-1.000000, 0.000000)" fill="#C6C6C6">
            <path d="M14.4,10.1 L13,8.8 L13,6.5 C13,3.9 11.1,1.8 8.5,1.5 L8.5,0.5 L7.5,0.5 L7.5,1.5 C5,1.8 3,3.9 3,6.5 L3,8.8 L1.6,10.1 C1.5,10.2 1.4,10.3 1.5,10.5 L1.5,12 C1.5,12.3 1.7,12.5 1.9,12.5 L5.5,12.5 C5.5,13.9 6.6,15 8,15 C9.4,15 10.5,13.9 10.5,12.5 L14,12.5 C14.3,12.5 14.5,12.3 14.5,12.1 L14.5,10.5 C14.5,10.4 14.4,10.2 14.4,10.1 Z M8,14 C7.2,14 6.5,13.3 6.5,12.5 L9.5,12.5 C9.5,13.3 8.8,14 8,14 Z M13.5,11.5 L2.5,11.5 L2.5,10.7 L3.8,9.3 C3.9,9.3 4,9.1 4,9 L4,6.5 C4,4.3 5.8,2.5 8,2.5 C10.2,2.5 12,4.3 12,6.5 L12,9 C12,9.1 12.1,9.3 12.1,9.4 L13.5,10.7 L13.5,11.5 L13.5,11.5 Z" id="Fill"></path>
        </g>
    </g>
</svg>