<?xml version="1.0" encoding="UTF-8"?>
<svg width="14px" height="14px" viewBox="0 0 14 14" version="1.1" xmlns="http://www.w3.org/2000/svg" xmlns:xlink="http://www.w3.org/1999/xlink">
    <!-- Generator: Sketch 61.2 (89653) - https://sketch.com -->
    <title>ui-icon / settings</title>
    <desc>Created with Sketch.</desc>
    <g id="Version-1" stroke="none" stroke-width="1" fill="none" fill-rule="evenodd">
        <g id="Actions-/-Controls-/-settings-/-16" transform="translate(-1.000000, -1.000000)" fill="#C6C6C6">
            <path d="M13.5,8.4 L13.5,7.6 L14.5,6.8 C14.9,6.5 14.9,5.9 14.7,5.5 L13.5,3.5 C13.3,3.2 13,3 12.6,3 C12.5,3 12.4,3 12.3,3.1 L11.1,3.5 C10.9,3.4 10.7,3.2 10.4,3.1 L10.1,1.8 C10.1,1.3 9.7,1 9.2,1 L6.8,1 C6.3,1 5.9,1.3 5.8,1.8 L5.6,3.1 C5.3,3.2 5.1,3.3 4.9,3.4 L3.7,3 L3.4,3 C3,3 2.7,3.2 2.5,3.5 L1.3,5.5 C1.1,5.9 1.2,6.4 1.6,6.8 L2.5,7.7 L2.5,8.5 L1.6,9.2 C1.2,9.5 1.1,10.1 1.4,10.5 L2.6,12.5 C2.7,12.8 3,13 3.4,13 C3.5,13 3.6,13 3.7,12.9 L4.9,12.5 C5.1,12.6 5.3,12.8 5.6,12.9 L5.9,14.2 C6,14.7 6.4,15 6.9,15 L9.3,15 C9.8,15 10.2,14.7 10.3,14.2 L10.6,12.9 C10.8,12.8 11,12.7 11.3,12.5 L12.5,12.9 C12.6,12.9 12.7,13 12.8,13 C13.2,13 13.5,12.8 13.7,12.5 L14.8,10.5 C15,10.1 15,9.6 14.6,9.2 L13.5,8.4 L13.5,8.4 Z M12.6,12 L10.9,11.4 C10.5,11.7 10,12 9.5,12.2 L9.2,14 L6.8,14 L6.4,12.2 C5.9,12 5.5,11.7 5,11.4 L3.4,12 L2.2,10 L3.6,8.8 C3.5,8.3 3.5,7.7 3.6,7.2 L2.2,6 L3.4,4 L5.1,4.6 C5.5,4.2 6,4 6.5,3.8 L6.8,2 L9.2,2 L9.6,3.8 C10.1,4 10.5,4.3 11,4.6 L12.6,4 L13.8,6 L12.4,7.2 C12.5,7.7 12.5,8.3 12.4,8.8 L13.8,10 L12.6,12 Z M8,11 C6.3,11 5,9.7 5,8 C5,6.3 6.3,5 8,5 C9.7,5 11,6.3 11,8 C11,9.6 9.7,11 8,11 Z M8,6 C6.9,6 6,6.8 6,7.9 L6,8 C6,9.1 6.8,10 7.9,10 L8,10 C9.1,10 10,9.2 10,8.1 L10,8 C10,6.9 9.2,6 8,6 C8.1,6 8,6 8,6 Z" id="Fill"></path>
        </g>
    </g>
</svg>